<svg width="20" height="20" viewBox="0 0 20 20" fill="none" xmlns="http://www.w3.org/2000/svg">
<g clip-path="url(#clip0_3834_3569)">
<path d="M6 6.29412H14M6 10.5294H12M16 1C16.7956 1 17.5587 1.33466 18.1213 1.93037C18.6839 2.52607 19 3.33402 19 4.17647V12.6471C19 13.4895 18.6839 14.2975 18.1213 14.8932C17.5587 15.4889 16.7956 15.8235 16 15.8235H11L6 19V15.8235H4C3.20435 15.8235 2.44129 15.4889 1.87868 14.8932C1.31607 14.2975 1 13.4895 1 12.6471V4.17647C1 3.33402 1.31607 2.52607 1.87868 1.93037C2.44129 1.33466 3.20435 1 4 1H16Z" stroke="#002252" stroke-linecap="round" stroke-linejoin="round"/>
</g>
<defs>
<clipPath id="clip0_3834_3569">
<rect width="20" height="20" fill="white"/>
</clipPath>
</defs>
</svg>
