<svg width="18" height="18" viewBox="0 0 18 18" fill="none" xmlns="http://www.w3.org/2000/svg">
<g clip-path="url(#clip0_3866_6006)">
<path d="M14.7276 4.90897C14.5106 4.90897 14.3025 4.99517 14.1491 5.14861C13.9956 5.30205 13.9094 5.51016 13.9094 5.72715V14.8834C13.886 15.2972 13.7 15.6849 13.3919 15.9621C13.0839 16.2393 12.6788 16.3836 12.2649 16.3635H5.73581C5.32189 16.3836 4.9168 16.2393 4.60877 15.9621C4.30074 15.6849 4.11473 15.2972 4.09126 14.8834V5.72715C4.09126 5.51016 4.00506 5.30205 3.85162 5.14861C3.69819 4.99517 3.49008 4.90897 3.27308 4.90897C3.05609 4.90897 2.84798 4.99517 2.69454 5.14861C2.5411 5.30205 2.4549 5.51016 2.4549 5.72715V14.8834C2.47825 15.7312 2.83665 16.5353 3.45159 17.1194C4.06654 17.7035 4.88791 18.0201 5.73581 17.9999H12.2649C13.1128 18.0201 13.9342 17.7035 14.5491 17.1194C15.1641 16.5353 15.5225 15.7312 15.5458 14.8834V5.72715C15.5458 5.51016 15.4596 5.30205 15.3062 5.14861C15.1527 4.99517 14.9446 4.90897 14.7276 4.90897ZM15.5458 2.45442H12.2731V0.81806C12.2731 0.601064 12.1869 0.392957 12.0334 0.239518C11.88 0.0860789 11.6719 -0.00012207 11.4549 -0.00012207H6.54581C6.32881 -0.00012207 6.12071 0.0860789 5.96727 0.239518C5.81383 0.392957 5.72763 0.601064 5.72763 0.81806V2.45442H2.4549C2.23791 2.45442 2.0298 2.54062 1.87636 2.69406C1.72292 2.8475 1.63672 3.05561 1.63672 3.27261C1.63672 3.4896 1.72292 3.69771 1.87636 3.85115C2.0298 4.00459 2.23791 4.09079 2.4549 4.09079H15.5458C15.7628 4.09079 15.9709 4.00459 16.1244 3.85115C16.2778 3.69771 16.364 3.4896 16.364 3.27261C16.364 3.05561 16.2778 2.8475 16.1244 2.69406C15.9709 2.54062 15.7628 2.45442 15.5458 2.45442ZM7.36399 2.45442V1.63624H10.6367V2.45442H7.36399Z" fill="#000B1B"/>
<path d="M14.7276 4.90897C14.5106 4.90897 14.3025 4.99517 14.1491 5.14861C13.9956 5.30205 13.9094 5.51016 13.9094 5.72715V14.8834C13.886 15.2972 13.7 15.6849 13.3919 15.9621C13.0839 16.2393 12.6788 16.3836 12.2649 16.3635H5.73581C5.32189 16.3836 4.9168 16.2393 4.60877 15.9621C4.30074 15.6849 4.11473 15.2972 4.09126 14.8834V5.72715C4.09126 5.51016 4.00506 5.30205 3.85162 5.14861C3.69819 4.99517 3.49008 4.90897 3.27308 4.90897C3.05609 4.90897 2.84798 4.99517 2.69454 5.14861C2.5411 5.30205 2.4549 5.51016 2.4549 5.72715V14.8834C2.47825 15.7312 2.83665 16.5353 3.45159 17.1194C4.06654 17.7035 4.88791 18.0201 5.73581 17.9999H12.2649C13.1128 18.0201 13.9342 17.7035 14.5491 17.1194C15.1641 16.5353 15.5225 15.7312 15.5458 14.8834V5.72715C15.5458 5.51016 15.4596 5.30205 15.3062 5.14861C15.1527 4.99517 14.9446 4.90897 14.7276 4.90897ZM15.5458 2.45442H12.2731V0.81806C12.2731 0.601064 12.1869 0.392957 12.0334 0.239518C11.88 0.0860789 11.6719 -0.00012207 11.4549 -0.00012207H6.54581C6.32881 -0.00012207 6.12071 0.0860789 5.96727 0.239518C5.81383 0.392957 5.72763 0.601064 5.72763 0.81806V2.45442H2.4549C2.23791 2.45442 2.0298 2.54062 1.87636 2.69406C1.72292 2.8475 1.63672 3.05561 1.63672 3.27261C1.63672 3.4896 1.72292 3.69771 1.87636 3.85115C2.0298 4.00459 2.23791 4.09079 2.4549 4.09079H15.5458C15.7628 4.09079 15.9709 4.00459 16.1244 3.85115C16.2778 3.69771 16.364 3.4896 16.364 3.27261C16.364 3.05561 16.2778 2.8475 16.1244 2.69406C15.9709 2.54062 15.7628 2.45442 15.5458 2.45442ZM7.36399 2.45442V1.63624H10.6367V2.45442H7.36399Z" stroke="#000B1B"/>
<path d="M8.18129 13.0909V7.36359C8.18129 7.1466 8.09508 6.93849 7.94165 6.78505C7.78821 6.63161 7.5801 6.54541 7.3631 6.54541C7.14611 6.54541 6.938 6.63161 6.78456 6.78505C6.63112 6.93849 6.54492 7.1466 6.54492 7.36359V13.0909C6.54492 13.3079 6.63112 13.516 6.78456 13.6694C6.938 13.8228 7.14611 13.909 7.3631 13.909C7.5801 13.909 7.78821 13.8228 7.94165 13.6694C8.09508 13.516 8.18129 13.3079 8.18129 13.0909ZM11.454 13.0909V7.36359C11.454 7.1466 11.3678 6.93849 11.2144 6.78505C11.0609 6.63161 10.8528 6.54541 10.6358 6.54541C10.4188 6.54541 10.2107 6.63161 10.0573 6.78505C9.90385 6.93849 9.81765 7.1466 9.81765 7.36359V13.0909C9.81765 13.3079 9.90385 13.516 10.0573 13.6694C10.2107 13.8228 10.4188 13.909 10.6358 13.909C10.8528 13.909 11.0609 13.8228 11.2144 13.6694C11.3678 13.516 11.454 13.3079 11.454 13.0909Z" fill="#000B1B"/>
</g>
<defs>
<clipPath id="clip0_3866_6006">
<rect width="18" height="18" fill="white"/>
</clipPath>
</defs>
</svg>
