<svg width="18" height="20" viewBox="0 0 18 20" fill="none" xmlns="http://www.w3.org/2000/svg">
<g clip-path="url(#clip0_3866_6089)">
<path d="M14.7276 5.90897C14.5106 5.90897 14.3025 5.99517 14.1491 6.14861C13.9956 6.30205 13.9094 6.51016 13.9094 6.72715V15.8834C13.886 16.2972 13.7 16.6849 13.3919 16.9621C13.0839 17.2393 12.6788 17.3836 12.2649 17.3635H5.73581C5.32189 17.3836 4.9168 17.2393 4.60877 16.9621C4.30074 16.6849 4.11473 16.2972 4.09126 15.8834V6.72715C4.09126 6.51016 4.00506 6.30205 3.85162 6.14861C3.69819 5.99517 3.49008 5.90897 3.27308 5.90897C3.05609 5.90897 2.84798 5.99517 2.69454 6.14861C2.5411 6.30205 2.4549 6.51016 2.4549 6.72715V15.8834C2.47825 16.7312 2.83665 17.5353 3.45159 18.1194C4.06654 18.7035 4.88791 19.0201 5.73581 18.9999H12.2649C13.1128 19.0201 13.9342 18.7035 14.5491 18.1194C15.1641 17.5353 15.5225 16.7312 15.5458 15.8834V6.72715C15.5458 6.51016 15.4596 6.30205 15.3062 6.14861C15.1527 5.99517 14.9446 5.90897 14.7276 5.90897ZM15.5458 3.45442H12.2731V1.81806C12.2731 1.60106 12.1869 1.39296 12.0334 1.23952C11.88 1.08608 11.6719 0.999878 11.4549 0.999878H6.54581C6.32881 0.999878 6.12071 1.08608 5.96727 1.23952C5.81383 1.39296 5.72763 1.60106 5.72763 1.81806V3.45442H2.4549C2.23791 3.45442 2.0298 3.54062 1.87636 3.69406C1.72292 3.8475 1.63672 4.05561 1.63672 4.27261C1.63672 4.4896 1.72292 4.69771 1.87636 4.85115C2.0298 5.00459 2.23791 5.09079 2.4549 5.09079H15.5458C15.7628 5.09079 15.9709 5.00459 16.1244 4.85115C16.2778 4.69771 16.364 4.4896 16.364 4.27261C16.364 4.05561 16.2778 3.8475 16.1244 3.69406C15.9709 3.54062 15.7628 3.45442 15.5458 3.45442ZM7.36399 3.45442V2.63624H10.6367V3.45442H7.36399Z" fill="#8C8C8C"/>
<path d="M14.7276 5.90897C14.5106 5.90897 14.3025 5.99517 14.1491 6.14861C13.9956 6.30205 13.9094 6.51016 13.9094 6.72715V15.8834C13.886 16.2972 13.7 16.6849 13.3919 16.9621C13.0839 17.2393 12.6788 17.3836 12.2649 17.3635H5.73581C5.32189 17.3836 4.9168 17.2393 4.60877 16.9621C4.30074 16.6849 4.11473 16.2972 4.09126 15.8834V6.72715C4.09126 6.51016 4.00506 6.30205 3.85162 6.14861C3.69819 5.99517 3.49008 5.90897 3.27308 5.90897C3.05609 5.90897 2.84798 5.99517 2.69454 6.14861C2.5411 6.30205 2.4549 6.51016 2.4549 6.72715V15.8834C2.47825 16.7312 2.83665 17.5353 3.45159 18.1194C4.06654 18.7035 4.88791 19.0201 5.73581 18.9999H12.2649C13.1128 19.0201 13.9342 18.7035 14.5491 18.1194C15.1641 17.5353 15.5225 16.7312 15.5458 15.8834V6.72715C15.5458 6.51016 15.4596 6.30205 15.3062 6.14861C15.1527 5.99517 14.9446 5.90897 14.7276 5.90897ZM15.5458 3.45442H12.2731V1.81806C12.2731 1.60106 12.1869 1.39296 12.0334 1.23952C11.88 1.08608 11.6719 0.999878 11.4549 0.999878H6.54581C6.32881 0.999878 6.12071 1.08608 5.96727 1.23952C5.81383 1.39296 5.72763 1.60106 5.72763 1.81806V3.45442H2.4549C2.23791 3.45442 2.0298 3.54062 1.87636 3.69406C1.72292 3.8475 1.63672 4.05561 1.63672 4.27261C1.63672 4.4896 1.72292 4.69771 1.87636 4.85115C2.0298 5.00459 2.23791 5.09079 2.4549 5.09079H15.5458C15.7628 5.09079 15.9709 5.00459 16.1244 4.85115C16.2778 4.69771 16.364 4.4896 16.364 4.27261C16.364 4.05561 16.2778 3.8475 16.1244 3.69406C15.9709 3.54062 15.7628 3.45442 15.5458 3.45442ZM7.36399 3.45442V2.63624H10.6367V3.45442H7.36399Z" stroke="#8C8C8C"/>
<path d="M8.18129 14.0909V8.36359C8.18129 8.1466 8.09508 7.93849 7.94165 7.78505C7.78821 7.63161 7.5801 7.54541 7.3631 7.54541C7.14611 7.54541 6.938 7.63161 6.78456 7.78505C6.63112 7.93849 6.54492 8.1466 6.54492 8.36359V14.0909C6.54492 14.3079 6.63112 14.516 6.78456 14.6694C6.938 14.8228 7.14611 14.909 7.3631 14.909C7.5801 14.909 7.78821 14.8228 7.94165 14.6694C8.09508 14.516 8.18129 14.3079 8.18129 14.0909ZM11.454 14.0909V8.36359C11.454 8.1466 11.3678 7.93849 11.2144 7.78505C11.0609 7.63161 10.8528 7.54541 10.6358 7.54541C10.4188 7.54541 10.2107 7.63161 10.0573 7.78505C9.90385 7.93849 9.81765 8.1466 9.81765 8.36359V14.0909C9.81765 14.3079 9.90385 14.516 10.0573 14.6694C10.2107 14.8228 10.4188 14.909 10.6358 14.909C10.8528 14.909 11.0609 14.8228 11.2144 14.6694C11.3678 14.516 11.454 14.3079 11.454 14.0909Z" fill="#8C8C8C"/>
</g>
<defs>
<clipPath id="clip0_3866_6089">
<rect width="18" height="18" fill="white" transform="translate(0 1)"/>
</clipPath>
</defs>
</svg>
