<svg width="20" height="20" viewBox="0 0 20 20" fill="none" xmlns="http://www.w3.org/2000/svg">
<path d="M9.99998 18.7936C9.71521 18.7936 9.44076 18.6904 9.22682 18.503C8.41885 17.7965 7.63991 17.1326 6.95264 16.547L6.94913 16.544C4.93421 14.8269 3.19425 13.344 1.98363 11.8833C0.63035 10.2504 0 8.70202 0 7.01057C0 5.36722 0.563515 3.85109 1.5866 2.74132C2.62191 1.61844 4.04249 1 5.58714 1C6.74163 1 7.79889 1.365 8.72955 2.08476C9.1992 2.44804 9.6249 2.89269 9.99998 3.41132C10.3752 2.89269 10.8008 2.44804 11.2706 2.08476C12.2012 1.365 13.2585 1 14.413 1C15.9575 1 17.3782 1.61844 18.4135 2.74132C19.4366 3.85109 20 5.36722 20 7.01057C20 8.70198 19.3698 10.2503 18.0165 11.8831C16.8058 13.344 15.066 14.8267 13.0514 16.5436C12.3629 17.1302 11.5828 17.7952 10.773 18.5033C10.559 18.6905 10.2843 18.7936 9.99998 18.7936ZM5.58714 2.17156C4.37362 2.17156 3.25882 2.6559 2.44781 3.53539C1.62476 4.4282 1.1714 5.66233 1.1714 7.01057C1.1714 8.43315 1.70011 9.70541 2.88558 11.1358C4.03136 12.5184 5.73561 13.9707 7.70889 15.6524L7.71252 15.6554C8.40237 16.2433 9.1844 16.9099 9.9983 17.6215C10.8171 16.9085 11.6003 16.2409 12.2915 15.6521C14.2647 13.9704 15.9688 12.5184 17.1145 11.1358C18.2998 9.70541 18.8286 8.43315 18.8286 7.01057C18.8286 5.6623 18.3752 4.42816 17.5522 3.53539C16.7413 2.6559 15.6264 2.17156 14.413 2.17156C13.524 2.17156 12.7078 2.45418 11.9871 3.0114C11.3449 3.50824 10.8975 4.13628 10.6352 4.57574C10.5003 4.80171 10.2629 4.93659 9.99998 4.93659C9.73705 4.93659 9.49963 4.80171 9.36475 4.57574C9.10264 4.13628 8.65522 3.50824 8.0128 3.0114C7.29217 2.45418 6.47596 2.17156 5.58714 2.17156Z" fill="#EB2614"/>
</svg>
